<mxfile host="app.diagrams.net" modified="2023-06-10T19:23:45.668Z" agent="Mozilla/5.0 (X11; Linux x86_64) AppleWebKit/537.36 (KHTML, like Gecko) Chrome/114.0.0.0 Safari/537.36" etag="jIp3U9G-39KO87NVPKHq" version="21.3.8" type="device">
  <diagram name="Page-1" id="Y4IajNAnXhfGOGsb3V2c">
    <mxGraphModel dx="1362" dy="774" grid="1" gridSize="10" guides="1" tooltips="1" connect="1" arrows="1" fold="1" page="1" pageScale="1" pageWidth="850" pageHeight="1100" math="0" shadow="0">
      <root>
        <mxCell id="0" />
        <mxCell id="1" parent="0" />
        <mxCell id="fiS_CXqN-_awc4b89Qtl-24" value="" style="rounded=1;whiteSpace=wrap;html=1;arcSize=5;" vertex="1" parent="1">
          <mxGeometry x="30" y="70" width="580" height="380" as="geometry" />
        </mxCell>
        <mxCell id="fiS_CXqN-_awc4b89Qtl-19" value="Write Address Channel" style="rounded=0;whiteSpace=wrap;html=1;fillColor=none;strokeColor=none;" vertex="1" parent="1">
          <mxGeometry x="120" y="100" width="400" height="20" as="geometry" />
        </mxCell>
        <mxCell id="fiS_CXqN-_awc4b89Qtl-18" value="&lt;font style=&quot;font-size: 20px;&quot;&gt;S&lt;br&gt;U&lt;br&gt;B&lt;br&gt;O&lt;br&gt;R&lt;br&gt;D&lt;br&gt;I&lt;br&gt;N&lt;br&gt;A&lt;br&gt;T&lt;br&gt;E&lt;/font&gt;" style="shape=ext;double=1;rounded=1;whiteSpace=wrap;html=1;" vertex="1" parent="1">
          <mxGeometry x="520" y="80" width="80" height="360" as="geometry" />
        </mxCell>
        <mxCell id="fiS_CXqN-_awc4b89Qtl-17" value="&lt;font style=&quot;font-size: 20px;&quot;&gt;M&lt;br&gt;A&lt;br&gt;N&lt;br&gt;A&lt;br&gt;G&lt;br&gt;E&lt;br&gt;R&lt;/font&gt;" style="shape=ext;double=1;rounded=1;whiteSpace=wrap;html=1;" vertex="1" parent="1">
          <mxGeometry x="40" y="80" width="80" height="360" as="geometry" />
        </mxCell>
        <mxCell id="fiS_CXqN-_awc4b89Qtl-1" value="" style="shape=singleArrow;whiteSpace=wrap;html=1;arrowWidth=0.6666666666666666;arrowSize=0.09772727272727273;fillColor=#f5f5f5;gradientColor=#b3b3b3;strokeColor=#666666;strokeWidth=2;" vertex="1" parent="1">
          <mxGeometry x="120" y="115" width="400" height="30" as="geometry" />
        </mxCell>
        <mxCell id="fiS_CXqN-_awc4b89Qtl-2" value="ADDR / CTRL" style="rounded=0;whiteSpace=wrap;html=1;fillColor=#dae8fc;strokeColor=#6c8ebf;strokeWidth=2;" vertex="1" parent="1">
          <mxGeometry x="120" y="120" width="80" height="20" as="geometry" />
        </mxCell>
        <mxCell id="fiS_CXqN-_awc4b89Qtl-3" value="" style="shape=singleArrow;whiteSpace=wrap;html=1;arrowWidth=0.6666666666666666;arrowSize=0.09772727272727273;fillColor=#f5f5f5;gradientColor=#b3b3b3;strokeColor=#666666;strokeWidth=2;" vertex="1" parent="1">
          <mxGeometry x="120" y="175" width="400" height="30" as="geometry" />
        </mxCell>
        <mxCell id="fiS_CXqN-_awc4b89Qtl-4" value="DATA" style="rounded=0;whiteSpace=wrap;html=1;fillColor=#dae8fc;strokeColor=#6c8ebf;strokeWidth=2;" vertex="1" parent="1">
          <mxGeometry x="120" y="180" width="80" height="20" as="geometry" />
        </mxCell>
        <mxCell id="fiS_CXqN-_awc4b89Qtl-5" value="DATA" style="rounded=0;whiteSpace=wrap;html=1;fillColor=#dae8fc;strokeColor=#6c8ebf;strokeWidth=2;" vertex="1" parent="1">
          <mxGeometry x="200" y="180" width="80" height="20" as="geometry" />
        </mxCell>
        <mxCell id="fiS_CXqN-_awc4b89Qtl-6" value="DATA" style="rounded=0;whiteSpace=wrap;html=1;fillColor=#dae8fc;strokeColor=#6c8ebf;strokeWidth=2;" vertex="1" parent="1">
          <mxGeometry x="280" y="180" width="80" height="20" as="geometry" />
        </mxCell>
        <mxCell id="fiS_CXqN-_awc4b89Qtl-7" value="DATA" style="rounded=0;whiteSpace=wrap;html=1;fillColor=#dae8fc;strokeColor=#6c8ebf;strokeWidth=2;" vertex="1" parent="1">
          <mxGeometry x="360" y="180" width="80" height="20" as="geometry" />
        </mxCell>
        <mxCell id="fiS_CXqN-_awc4b89Qtl-8" value="" style="shape=singleArrow;whiteSpace=wrap;html=1;arrowWidth=0.6666666666666666;arrowSize=0.09772727272727273;rotation=-180;fillColor=#f5f5f5;gradientColor=#b3b3b3;strokeColor=#666666;strokeWidth=2;" vertex="1" parent="1">
          <mxGeometry x="120" y="235" width="400" height="30" as="geometry" />
        </mxCell>
        <mxCell id="fiS_CXqN-_awc4b89Qtl-9" value="RESP" style="rounded=0;whiteSpace=wrap;html=1;fillColor=#dae8fc;strokeColor=#6c8ebf;strokeWidth=2;" vertex="1" parent="1">
          <mxGeometry x="440" y="240" width="80" height="20" as="geometry" />
        </mxCell>
        <mxCell id="fiS_CXqN-_awc4b89Qtl-10" value="" style="shape=singleArrow;whiteSpace=wrap;html=1;arrowWidth=0.6666666666666666;arrowSize=0.09772727272727273;fillColor=#f5f5f5;gradientColor=#b3b3b3;strokeColor=#666666;strokeWidth=2;" vertex="1" parent="1">
          <mxGeometry x="120" y="315" width="400" height="30" as="geometry" />
        </mxCell>
        <mxCell id="fiS_CXqN-_awc4b89Qtl-11" value="ADDR / CTRL" style="rounded=0;whiteSpace=wrap;html=1;strokeWidth=2;fillColor=#d5e8d4;strokeColor=#82b366;" vertex="1" parent="1">
          <mxGeometry x="120" y="320" width="80" height="20" as="geometry" />
        </mxCell>
        <mxCell id="fiS_CXqN-_awc4b89Qtl-12" value="" style="shape=singleArrow;whiteSpace=wrap;html=1;arrowWidth=0.6666666666666666;arrowSize=0.09772727272727273;rotation=-180;fillColor=#f5f5f5;gradientColor=#b3b3b3;strokeColor=#666666;strokeWidth=2;" vertex="1" parent="1">
          <mxGeometry x="120" y="375" width="400" height="30" as="geometry" />
        </mxCell>
        <mxCell id="fiS_CXqN-_awc4b89Qtl-13" value="DATA / RESP" style="rounded=0;whiteSpace=wrap;html=1;strokeWidth=2;fillColor=#d5e8d4;strokeColor=#82b366;" vertex="1" parent="1">
          <mxGeometry x="440" y="380" width="80" height="20" as="geometry" />
        </mxCell>
        <mxCell id="fiS_CXqN-_awc4b89Qtl-14" value="DATA / RESP" style="rounded=0;whiteSpace=wrap;html=1;strokeWidth=2;fillColor=#d5e8d4;strokeColor=#82b366;" vertex="1" parent="1">
          <mxGeometry x="360" y="380" width="80" height="20" as="geometry" />
        </mxCell>
        <mxCell id="fiS_CXqN-_awc4b89Qtl-15" value="DATA / RESP" style="rounded=0;whiteSpace=wrap;html=1;strokeWidth=2;fillColor=#d5e8d4;strokeColor=#82b366;" vertex="1" parent="1">
          <mxGeometry x="280" y="380" width="80" height="20" as="geometry" />
        </mxCell>
        <mxCell id="fiS_CXqN-_awc4b89Qtl-16" value="DATA / RESP" style="rounded=0;whiteSpace=wrap;html=1;strokeWidth=2;fillColor=#d5e8d4;strokeColor=#82b366;" vertex="1" parent="1">
          <mxGeometry x="200" y="380" width="80" height="20" as="geometry" />
        </mxCell>
        <mxCell id="fiS_CXqN-_awc4b89Qtl-20" value="Write Data Channel" style="rounded=0;whiteSpace=wrap;html=1;fillColor=none;strokeColor=none;" vertex="1" parent="1">
          <mxGeometry x="120" y="160" width="400" height="20" as="geometry" />
        </mxCell>
        <mxCell id="fiS_CXqN-_awc4b89Qtl-21" value="Write Response Channel" style="rounded=0;whiteSpace=wrap;html=1;fillColor=none;strokeColor=none;" vertex="1" parent="1">
          <mxGeometry x="120" y="220" width="400" height="20" as="geometry" />
        </mxCell>
        <mxCell id="fiS_CXqN-_awc4b89Qtl-22" value="Read Address Channel" style="rounded=0;whiteSpace=wrap;html=1;fillColor=none;strokeColor=none;" vertex="1" parent="1">
          <mxGeometry x="120" y="300" width="400" height="20" as="geometry" />
        </mxCell>
        <mxCell id="fiS_CXqN-_awc4b89Qtl-23" value="Read Data Channel" style="rounded=0;whiteSpace=wrap;html=1;fillColor=none;strokeColor=none;" vertex="1" parent="1">
          <mxGeometry x="120" y="360" width="400" height="20" as="geometry" />
        </mxCell>
      </root>
    </mxGraphModel>
  </diagram>
</mxfile>
